<?xml version="1.0" encoding="UTF-8"?>
<svg id="Layer_1" data-name="Layer 1" xmlns="http://www.w3.org/2000/svg" viewBox="0 0 442.67 412.6">
  <defs>
    <style>
      .cls-1 {
        fill: #fff;
      }

      .cls-2 {
        fill: #0a4a4e;
      }

      .cls-3 {
        fill: #63d392;
      }
    </style>
  </defs>
  <g>
    <path class="cls-3" d="M178.29,157.32h30.75c16.97,0,30.75,13.78,30.75,30.75h0c0,16.97-13.78,30.75-30.75,30.75h0c-16.97,0-30.75-13.78-30.75-30.75v-30.75h0Z" transform="translate(418.07 376.13) rotate(180)"/>
    <g>
      <path class="cls-2" d="M250.62,157.32h0c16.97,0,30.75,13.78,30.75,30.75h0c0,16.97-13.78,30.75-30.75,30.75h-30.75v-30.75c0-16.97,13.78-30.75,30.75-30.75Z"/>
      <circle class="cls-3" cx="250.62" cy="185.55" r="5.95"/>
      <path class="cls-1" d="M244.94,196.83c.56,.04,1.13-.14,1.57-.48,.6-.46,1.76-1.1,3.72-1.28,3.14-.28,5.72-.33,7.98,2.09,2.26,2.42,2.84,6.24-.39,8.64-3.03,2.25-5.34,2.81-11.17,1.6-5.83-1.21-9.47-4.95-11.56-10.9-1.38-4.07-.88-4.73,0-4.84s3.08-.66,4.35,1.27c1.14,1.73,2.09,3.69,5.49,3.9Z"/>
    </g>
  </g>
  <g>
    <path class="cls-2" d="M135.56,243.31c1.88,1.92,2.81,4.61,2.81,8.05v15h-6.46v-14.12c0-2.03-.51-3.59-1.52-4.68s-2.4-1.64-4.15-1.64-3.19,.55-4.22,1.64c-1.03,1.09-1.55,2.65-1.55,4.68v14.12h-6.46v-25.56h6.46v3.18c.86-1.11,1.96-1.98,3.3-2.61,1.34-.63,2.81-.95,4.41-.95,3.05,0,5.51,.96,7.38,2.88Z"/>
    <path class="cls-2" d="M149.21,265.14c-1.97-1.09-3.51-2.64-4.64-4.64-1.12-2-1.68-4.31-1.68-6.92s.58-4.92,1.73-6.92c1.15-2,2.73-3.54,4.73-4.64,2-1.09,4.23-1.64,6.69-1.64s4.69,.55,6.69,1.64c2,1.09,3.58,2.64,4.73,4.64,1.15,2,1.73,4.31,1.73,6.92s-.59,4.92-1.78,6.92c-1.18,2-2.78,3.55-4.8,4.64-2.02,1.09-4.27,1.64-6.76,1.64s-4.68-.55-6.65-1.64Zm9.94-4.85c1.03-.57,1.85-1.42,2.47-2.56,.62-1.14,.92-2.52,.92-4.15,0-2.43-.64-4.3-1.92-5.61-1.28-1.31-2.84-1.96-4.68-1.96s-3.39,.65-4.64,1.96c-1.25,1.31-1.87,3.18-1.87,5.61s.61,4.3,1.82,5.61c1.21,1.31,2.75,1.96,4.59,1.96,1.17,0,2.27-.28,3.3-.85Z"/>
    <path class="cls-2" d="M181.47,246.1v12.37c0,.86,.21,1.48,.62,1.87,.42,.38,1.11,.58,2.1,.58h3v5.45h-4.06c-5.44,0-8.17-2.65-8.17-7.94v-12.32h-3.05v-5.31h3.05v-6.32h6.51v6.32h5.72v5.31h-5.72Z"/>
    <path class="cls-2" d="M215.43,255.52h-18.69c.15,1.85,.8,3.29,1.94,4.34,1.14,1.05,2.54,1.57,4.2,1.57,2.4,0,4.11-1.03,5.12-3.09h6.97c-.74,2.46-2.15,4.48-4.25,6.07-2.09,1.58-4.66,2.38-7.71,2.38-2.46,0-4.67-.55-6.62-1.64-1.95-1.09-3.48-2.64-4.57-4.64-1.09-2-1.64-4.31-1.64-6.92s.54-4.97,1.61-6.97c1.08-2,2.58-3.54,4.52-4.61s4.17-1.62,6.69-1.62,4.61,.52,6.53,1.57c1.92,1.05,3.42,2.53,4.48,4.45,1.06,1.92,1.59,4.13,1.59,6.62,0,.92-.06,1.75-.18,2.49Zm-6.51-4.34c-.03-1.66-.63-2.99-1.8-3.99-1.17-1-2.6-1.5-4.29-1.5-1.6,0-2.95,.48-4.04,1.45-1.09,.97-1.76,2.32-2.01,4.04h12.14Z"/>
    <path class="cls-2" d="M267.34,243.54c1.81,1.83,2.72,4.54,2.72,8.14v14.67h-2.03v-14.54c0-2.98-.72-5.27-2.15-6.85-1.43-1.58-3.39-2.38-5.88-2.38s-4.66,.89-6.23,2.68-2.35,4.37-2.35,7.75v13.34h-2.03v-14.54c0-2.98-.72-5.27-2.15-6.85-1.43-1.58-3.39-2.38-5.88-2.38s-4.66,.89-6.23,2.68-2.35,4.37-2.35,7.75v13.34h-2.08v-25.06h2.08v5.45c.71-1.97,1.85-3.45,3.44-4.45,1.58-1,3.41-1.5,5.47-1.5,2.28,0,4.24,.59,5.88,1.78,1.65,1.18,2.78,2.93,3.39,5.24,.58-2.31,1.72-4.05,3.41-5.24,1.69-1.18,3.68-1.78,5.95-1.78,2.86,0,5.2,.92,7.01,2.75Z"/>
    <path class="cls-2" d="M299.92,254.64h-21.64c.06,2.25,.55,4.14,1.48,5.68,.92,1.54,2.14,2.69,3.65,3.46,1.51,.77,3.15,1.15,4.94,1.15,2.46,0,4.52-.61,6.18-1.82,1.66-1.21,2.71-2.87,3.14-4.96h2.17c-.49,2.55-1.75,4.62-3.78,6.21-2.03,1.58-4.6,2.38-7.71,2.38-2.34,0-4.43-.52-6.28-1.57-1.85-1.04-3.29-2.54-4.34-4.5-1.05-1.95-1.57-4.24-1.57-6.85s.52-4.89,1.55-6.83c1.03-1.94,2.47-3.42,4.31-4.45,1.85-1.03,3.95-1.55,6.32-1.55s4.48,.52,6.25,1.55c1.77,1.03,3.11,2.4,4.04,4.11,.92,1.71,1.38,3.55,1.38,5.51,0,1.11-.03,1.94-.09,2.49Zm-3.16-7.34c-.88-1.54-2.07-2.68-3.58-3.44s-3.14-1.13-4.89-1.13-3.38,.38-4.87,1.13c-1.49,.75-2.71,1.9-3.65,3.44-.94,1.54-1.44,3.41-1.5,5.63h19.66c.09-2.22-.3-4.09-1.18-5.63Z"/>
    <path class="cls-2" d="M328.76,254.64h-21.64c.06,2.25,.55,4.14,1.48,5.68,.92,1.54,2.14,2.69,3.65,3.46,1.51,.77,3.15,1.15,4.94,1.15,2.46,0,4.52-.61,6.18-1.82,1.66-1.21,2.71-2.87,3.14-4.96h2.17c-.49,2.55-1.75,4.62-3.78,6.21-2.03,1.58-4.6,2.38-7.71,2.38-2.34,0-4.43-.52-6.28-1.57-1.85-1.04-3.29-2.54-4.34-4.5-1.05-1.95-1.57-4.24-1.57-6.85s.52-4.89,1.55-6.83c1.03-1.94,2.47-3.42,4.31-4.45,1.85-1.03,3.95-1.55,6.32-1.55s4.48,.52,6.25,1.55c1.77,1.03,3.11,2.4,4.04,4.11,.92,1.71,1.38,3.55,1.38,5.51,0,1.11-.03,1.94-.09,2.49Zm-3.16-7.34c-.88-1.54-2.07-2.68-3.58-3.44s-3.14-1.13-4.89-1.13-3.38,.38-4.87,1.13c-1.49,.75-2.71,1.9-3.65,3.44-.94,1.54-1.44,3.41-1.5,5.63h19.66c.09-2.22-.3-4.09-1.18-5.63Z"/>
    <path class="cls-2" d="M338.22,243.11v16.57c0,1.85,.34,3.12,1.02,3.81,.68,.69,1.88,1.04,3.6,1.04h2.81v1.85h-3.14c-2.18,0-3.79-.51-4.82-1.55-1.03-1.03-1.55-2.75-1.55-5.15v-16.57h-3.78v-1.8h3.78v-6.37h2.08v6.37h7.43v1.8h-7.43Z"/>
  </g>
</svg>