<svg version="1.2" xmlns="http://www.w3.org/2000/svg" width="32" height="32"><style>.prefix__s0{fill:#63d392}</style><path class="prefix__s0" d="M18.7 24.7H9.8c-4.8 0-8.8-4-8.8-8.9C1 11 5 7 9.8 7c4.9 0 8.9 4 8.9 8.8z"/><path d="M21.8 7c4.8 0 8.8 4 8.8 8.8 0 4.9-4 8.9-8.8 8.9h-8.9v-8.9c0-4.8 4-8.8 8.9-8.8z" fill="#0a4a4e"/><path class="prefix__s0" d="M21.8 16.8c-1 0-1.7-.7-1.7-1.7 0-.9.7-1.7 1.7-1.7.9 0 1.7.8 1.7 1.7 0 1-.8 1.7-1.7 1.7z"/><path id="prefix__Layer_copy" class="prefix__s0" d="M21.8 16.8c-1 0-1.7-.7-1.7-1.7 0-.9.7-1.7 1.7-1.7.9 0 1.7.8 1.7 1.7 0 1-.8 1.7-1.7 1.7z"/><path d="M20.1 18.3q.3.1.5-.1c.2-.1.5-.3 1.1-.4.9 0 1.6-.1 2.2.6.7.7.9 1.8-.1 2.5-.8.7-1.5.8-3.2.5-1.6-.4-2.7-1.4-3.3-3.2-.4-1.1-.2-1.3 0-1.3.3-.1.9-.2 1.3.3.3.5.6 1.1 1.5 1.1z" fill="#fff"/></svg>