<svg version="1.2" xmlns="http://www.w3.org/2000/svg" viewBox="0 0 32 32" width="32" height="32">
	<title>logo</title>
	<style>
		.s0 { fill: #63d392 } 
		.s1 { fill: #0a4a4e } 
		.s2 { fill: #ffffff } 
	</style>
	<path class="s0" d="m18.7 24.7h-8.9c-4.8 0-8.8-4-8.8-8.9 0-4.8 4-8.8 8.8-8.8 4.9 0 8.9 4 8.9 8.8z"/>
	<path class="s1" d="m21.8 7c4.8 0 8.8 4 8.8 8.8 0 4.9-4 8.9-8.8 8.9h-8.9v-8.9c0-4.8 4-8.8 8.9-8.8z"/>
	<path class="s0" d="m21.8 16.8c-1 0-1.7-0.7-1.7-1.7 0-0.9 0.7-1.7 1.7-1.7 0.9 0 1.7 0.8 1.7 1.7 0 1-0.8 1.7-1.7 1.7z"/>
	<path id="Layer copy" class="s0" d="m21.8 16.8c-1 0-1.7-0.7-1.7-1.7 0-0.9 0.7-1.7 1.7-1.7 0.9 0 1.7 0.8 1.7 1.7 0 1-0.8 1.7-1.7 1.7z"/>
	<path class="s2" d="m20.1 18.3q0.3 0.1 0.5-0.1c0.2-0.1 0.5-0.3 1.1-0.4 0.9 0 1.6-0.1 2.2 0.6 0.7 0.7 0.9 1.8-0.1 2.5-0.8 0.7-1.5 0.8-3.2 0.5-1.6-0.4-2.7-1.4-3.3-3.2-0.4-1.1-0.2-1.3 0-1.3 0.3-0.1 0.9-0.2 1.3 0.3 0.3 0.5 0.6 1.1 1.5 1.1z"/>
	<g id="Layer 1">
	</g>
</svg>